<?xml version="1.0" encoding="UTF-8"?> <svg xmlns="http://www.w3.org/2000/svg" width="66" height="70" viewBox="0 0 66 70" fill="none"><path d="M6.6 31.02V9.9C6.6 9.02479 6.94768 8.18542 7.56655 7.56655C8.18542 6.94768 9.02479 6.6 9.9 6.6H26.4V0H39.6V6.6H56.1C56.9752 6.6 57.8146 6.94768 58.4335 7.56655C59.0523 8.18542 59.4 9.02479 59.4 9.9V31.02L62.9838 32.0958C63.7965 32.3395 64.4842 32.8869 64.9039 33.6244C65.3236 34.3618 65.4432 35.2325 65.2377 36.0558L60.2316 56.0802C58.1008 56.1894 55.9691 55.8834 53.955 55.1793L58.08 37.521L33 29.7L7.92 37.521L12.045 55.1793C10.0309 55.8834 7.89921 56.1894 5.7684 56.0802L0.7656 36.0558C0.56 35.233 0.679084 34.3626 1.09814 33.6253C1.5172 32.8879 2.20407 32.3402 3.0162 32.0958L6.6 31.02ZM13.2 29.04L33 23.1L52.8 29.04V13.2H13.2V29.04ZM6.6 62.7C11.4717 62.7067 16.1735 60.9106 19.8 57.6576C23.4265 60.9106 28.1283 62.7067 33 62.7C37.8717 62.7067 42.5735 60.9106 46.2 57.6576C49.8265 60.9106 54.5283 62.7067 59.4 62.7H66V69.3H59.4C54.7656 69.3076 50.2117 68.0894 46.2 65.769C42.1883 68.0894 37.6344 69.3076 33 69.3C28.3656 69.3076 23.8117 68.0894 19.8 65.769C15.7883 68.0894 11.2344 69.3076 6.6 69.3H0V62.7H6.6Z" fill="url(#paint0_linear_163_48)"></path><defs><linearGradient id="paint0_linear_163_48" x1="33" y1="0" x2="33" y2="69.3" gradientUnits="userSpaceOnUse"><stop stop-color="#005A75"></stop></linearGradient></defs></svg> 