<?xml version="1.0" encoding="UTF-8"?> <svg xmlns="http://www.w3.org/2000/svg" width="66" height="66" viewBox="0 0 66 66" fill="none"><path d="M33 0C24.2479 0 15.8542 3.47678 9.66548 9.66548C3.47678 15.8542 0 24.2479 0 33C0 41.7521 3.47678 50.1458 9.66548 56.3345C15.8542 62.5232 24.2479 66 33 66C41.7521 66 50.1458 62.5232 56.3345 56.3345C62.5232 50.1458 66 41.7521 66 33C66 24.2479 62.5232 15.8542 56.3345 9.66548C50.1458 3.47678 41.7521 0 33 0ZM4.07 35.4933H13.2733C13.42 38.83 13.8857 42.1447 14.6667 45.3933H6.74667C5.26975 42.2799 4.36318 38.9268 4.07 35.4933ZM35.4933 15.6933V4.36333C39.0268 5.70616 41.9304 8.32195 43.6333 11.6967C44.385 12.969 45.0487 14.2927 45.6133 15.6567L35.4933 15.6933ZM47.3 20.6433C48.1507 23.881 48.6567 27.1993 48.8033 30.5433H35.4933V20.6433H47.3ZM30.5067 4.36333V15.6933H20.3867C20.9523 14.3282 21.614 13.0049 22.3667 11.7333C24.0624 8.34479 26.9668 5.71509 30.5067 4.36333ZM30.5067 20.6433V30.5433H17.2333C17.38 27.1993 17.886 23.881 18.7367 20.6433H30.5067ZM13.2733 30.5067H4.07C4.36318 27.0732 5.26975 23.7201 6.74667 20.6067H14.6667C13.8842 23.854 13.4176 27.1695 13.2733 30.5067ZM17.2333 35.4933H30.5067V45.3933H18.7367C17.8861 42.1559 17.3822 38.8373 17.2333 35.4933ZM30.5433 50.16V61.49C27.0098 60.1472 24.1063 57.5314 22.4033 54.1567C21.6506 52.8851 20.989 51.5618 20.4233 50.1967L30.5433 50.16ZM35.4933 61.49V50.3433H45.6133C45.0477 51.7084 44.386 53.0318 43.6333 54.3033C41.9304 57.6781 39.0268 60.2938 35.4933 61.6367V61.49ZM35.4933 45.21V35.31H48.7667C48.6178 38.654 48.1139 41.9726 47.2633 45.21H35.4933ZM52.7633 35.31H61.9667C61.6735 38.7435 60.7669 42.0966 59.29 45.21H51.3333C52.1033 42.02 52.569 38.7677 52.7267 35.4933L52.7633 35.31ZM52.7633 30.36C52.5954 27.0831 52.1166 23.8296 51.3333 20.6433H59.2533C60.731 23.76 61.6367 27.1113 61.93 30.5433L52.7633 30.36ZM56.43 15.6933H49.8667C48.6791 12.3578 46.9578 9.23716 44.77 6.45333C49.3327 8.50146 53.296 11.6822 56.2833 15.6933H56.43ZM21.23 6.45333C19.0422 9.23716 17.3209 12.3578 16.1333 15.6933H9.71667C12.704 11.6822 16.6673 8.50146 21.23 6.45333ZM9.68 50.4533H16.1333C17.3209 53.7889 19.0422 56.9095 21.23 59.6933C16.6546 57.6144 12.6901 54.3948 9.71667 50.3433L9.68 50.4533ZM44.7333 59.6933C46.9212 56.9095 48.6425 53.7889 49.83 50.4533H56.2833C53.2778 54.4108 49.3161 57.5397 44.77 59.5467L44.7333 59.6933Z" fill="#005A75"></path></svg> 