<?xml version="1.0" encoding="UTF-8"?> <svg xmlns="http://www.w3.org/2000/svg" width="100" height="100" viewBox="0 0 100 100" fill="none"><g clip-path="url(#clip0_313_46)"><circle cx="50" cy="50" r="48.5" stroke="white" stroke-width="3"></circle><path d="M76 50C76 50.4401 75.8252 50.8623 75.5139 51.1735C75.2027 51.4847 74.7806 51.6596 74.3404 51.6596H51.6596V74.3404C51.6596 74.7806 51.4847 75.2027 51.1735 75.5139C50.8623 75.8252 50.4401 76 50 76C49.5599 76 49.1377 75.8252 48.8265 75.5139C48.5153 75.2027 48.3404 74.7806 48.3404 74.3404V51.6596H25.6596C25.2194 51.6596 24.7973 51.4847 24.4861 51.1735C24.1748 50.8623 24 50.4401 24 50C24 49.5599 24.1748 49.1377 24.4861 48.8265C24.7973 48.5153 25.2194 48.3404 25.6596 48.3404H48.3404V25.6596C48.3404 25.2194 48.5153 24.7973 48.8265 24.4861C49.1377 24.1748 49.5599 24 50 24C50.4401 24 50.8623 24.1748 51.1735 24.4861C51.4847 24.7973 51.6596 25.2194 51.6596 25.6596V48.3404H74.3404C74.7806 48.3404 75.2027 48.5153 75.5139 48.8265C75.8252 49.1377 76 49.5599 76 50Z" fill="#F8F8F8"></path></g><defs><clipPath id="clip0_313_46"><rect width="100" height="100" fill="white"></rect></clipPath></defs></svg> 