<?xml version="1.0" encoding="UTF-8"?> <svg xmlns="http://www.w3.org/2000/svg" width="66" height="76" viewBox="0 0 66 76" fill="none"><path d="M35.0261 0.769457C34.4684 0.273792 33.7483 0 33.0022 0C32.2561 0 31.5359 0.273792 30.9782 0.769457C27.2395 4.08771 24.4923 8.37614 23.0408 13.1597C21.5894 17.9433 21.4905 23.0352 22.755 27.8715C16.7595 24.3329 9.81234 22.7451 2.87482 23.3278C2.46302 23.3616 2.062 23.4767 1.69487 23.6662C1.32773 23.8558 1.00173 24.1161 0.735668 24.4322C0.469602 24.7484 0.268725 25.114 0.144613 25.5081C0.0205012 25.9022 -0.0243911 26.317 0.0125222 26.7285C0.598207 33.1758 3.62109 39.5758 7.81063 44.5352C6.16642 44.4303 4.51672 44.4461 2.87482 44.5824C2.46302 44.6163 2.062 44.7313 1.69487 44.9209C1.32773 45.1105 1.00173 45.3708 0.735668 45.6869C0.469602 46.003 0.268725 46.3687 0.144613 46.7628C0.0205012 47.1569 -0.0243911 47.5717 0.0125222 47.9832C0.69155 55.4595 4.1418 62.4115 9.68539 67.4736C15.229 72.5356 22.4651 75.3416 29.9722 75.3403H36.0321C43.5376 75.3406 50.772 72.5347 56.3144 67.4737C61.8569 62.4128 65.307 55.4625 65.9871 47.9879C66.0246 47.576 65.9802 47.1607 65.8564 46.7661C65.7326 46.3714 65.5318 46.0052 65.2657 45.6886C64.9996 45.372 64.6734 45.1112 64.3059 44.9213C63.9384 44.7315 63.537 44.6163 63.1248 44.5824C61.4829 44.446 59.8332 44.4302 58.1889 44.5352C62.3785 39.5758 65.4014 33.1758 65.9823 26.7285C66.0186 26.3175 65.9734 25.9033 65.8494 25.5097C65.7253 25.1162 65.5248 24.751 65.2594 24.4351C64.9939 24.1191 64.6687 23.8587 64.3024 23.6687C63.9361 23.4787 63.5359 23.3628 63.1248 23.3278C56.1888 22.7461 49.2435 24.3338 43.2493 27.8715C44.5149 23.0357 44.417 17.9438 42.9664 13.1602C41.5158 8.37655 38.7644 4.08791 35.0261 0.769457ZM33.0045 58.4688C28.9652 52.8646 23.304 48.6344 16.7848 46.3489C16.7315 46.3057 16.6763 46.2647 16.6195 46.2261C10.9469 42.372 6.14804 35.1926 4.93416 27.9471C12.0434 27.7628 18.9712 30.2044 24.394 34.8053C27.979 37.8423 28.9661 40.6149 29.8494 43.1088C30.1706 44.0062 30.4776 44.8706 30.8885 45.6924C31.0844 46.0854 31.3859 46.416 31.7593 46.6471C32.1326 46.8782 32.5631 47.0006 33.0022 47.0006C33.4412 47.0006 33.8717 46.8782 34.245 46.6471C34.6184 46.416 34.9199 46.0854 35.1158 45.6924C35.5267 44.8706 35.8337 44.0062 36.1549 43.1041C37.0382 40.6196 38.0253 37.8423 41.615 34.8053C47.0359 30.2038 53.9619 27.7606 61.0701 27.9424C59.8563 35.1926 55.0574 42.3672 49.3848 46.2261C49.3278 46.2645 49.2727 46.3055 49.2195 46.3489C42.7019 48.6349 37.0423 52.8652 33.0045 58.4688ZM29.9722 70.6171C23.9296 70.6171 18.0857 68.4591 13.4934 64.5319C8.90114 60.6046 5.86239 55.1664 4.92471 49.1971C10.1995 49.0623 15.4109 50.3712 19.996 52.9826C24.581 55.5939 28.3654 59.4084 30.9404 64.0139C31.1454 64.3808 31.4445 64.6863 31.8069 64.899C32.1693 65.1116 32.5819 65.2238 33.0022 65.2238C33.4224 65.2238 33.835 65.1116 34.1974 64.899C34.5598 64.6863 34.8589 64.3808 35.0639 64.0139C37.6389 59.4084 41.4233 55.5939 46.0083 52.9826C50.5934 50.3712 55.8048 49.0623 61.0796 49.1971C60.1418 55.1672 57.1024 60.6061 52.5091 64.5334C47.9158 68.4607 42.0708 70.6182 36.0274 70.6171H29.9722ZM32.9998 36.6851C28.8997 32.5019 26.6031 26.8779 26.6031 21.0204C26.6031 15.163 28.8997 9.53895 32.9998 5.35575C37.0999 9.53895 39.3965 15.163 39.3965 21.0204C39.3965 26.8779 37.0999 32.5019 32.9998 36.6851Z" fill="#005A75"></path></svg> 